<?xml version="1.0" encoding="utf-8"?>
<!-- Svg Vector Icons : http://www.onlinewebfonts.com/icon -->
<!DOCTYPE svg PUBLIC "-//W3C//DTD SVG 1.1//EN" "http://www.w3.org/Graphics/SVG/1.1/DTD/svg11.dtd">
<svg version="1.1" xmlns="http://www.w3.org/2000/svg" xmlns:xlink="http://www.w3.org/1999/xlink" x="0px" y="0px" viewBox="0 0 1000 1000" enable-background="new 0 0 1000 1000" xml:space="preserve">
<metadata> Svg Vector Icons : http://www.onlinewebfonts.com/icon </metadata>
<g><g><g><path d="M173.5,194.8c51.1,0,92.5,41.4,92.5,92.5c0,51.1-41.4,92.5-92.5,92.5c-51.1,0-92.5-41.4-92.5-92.5C81,236.2,122.4,194.8,173.5,194.8z"/><path d="M107.4,487.9c40.5,0,73.4,32.8,73.4,73.4c0,40.5-32.8,73.4-73.4,73.4c-40.5,0-73.4-32.9-73.4-73.4C34,520.8,66.8,487.9,107.4,487.9z"/><path d="M232.9,746.8c37,0,66.9,30,66.9,66.9c0,37-30,66.9-66.9,66.9c-37,0-66.9-30-66.9-66.9C165.9,776.7,195.9,746.8,232.9,746.8z"/><path d="M491.2,862.8c35.1,0,63.6,28.5,63.6,63.6c0,35.1-28.5,63.6-63.6,63.6c-35.1,0-63.6-28.5-63.6-63.6C427.7,891.3,456.1,862.8,491.2,862.8z"/><path d="M761.6,792.5c29.9,0,54.2,24.3,54.2,54.2c0,29.9-24.3,54.2-54.2,54.2s-54.2-24.3-54.2-54.2C707.4,816.7,731.7,792.5,761.6,792.5z"/><path d="M917.5,563.2c26.8,0,48.5,21.7,48.5,48.5c0,26.8-21.7,48.5-48.5,48.5c-26.8,0-48.5-21.7-48.5-48.5C869,585,890.7,563.2,917.5,563.2z"/><path d="M892.4,368.7c20.5-3.6,34.1-23.1,30.5-43.6c-3.6-20.5-23.1-34.2-43.6-30.5c-20.5,3.6-34.2,23.1-30.6,43.6C852.4,358.7,871.9,372.3,892.4,368.7z"/><path d="M681.6,111.2c14.4,0,26.1,11.7,26.1,26.1c0,14.4-11.7,26.1-26.1,26.1c-14.4,0-26.1-11.7-26.1-26.1C655.5,122.9,667.2,111.2,681.6,111.2z"/><path d="M400.3,10c60.7,0,109.8,49.2,109.8,109.8c0,60.7-49.2,109.8-109.8,109.8c-60.7,0-109.8-49.2-109.8-109.8C290.4,59.2,339.6,10,400.3,10z"/><path d="M366.1,296.4h-36.5c-12.9,0-23.5,10.5-23.5,23.5v72.9c0,12.9,10.5,23.4,23.5,23.4h36.5c12.9,0,23.4-10.5,23.4-23.4v-72.9C389.6,306.9,379.1,296.4,366.1,296.4z M373.9,392.8c0,4.3-3.5,7.8-7.8,7.8h-36.5c-4.3,0-7.8-3.5-7.8-7.8v-72.9c0-4.3,3.5-7.8,7.8-7.8h36.5c4.3,0,7.8,3.5,7.8,7.8V392.8z"/><path d="M560.2,416.2h36.4c12.9,0,23.5-10.5,23.5-23.4v-72.9c0-12.9-10.5-23.5-23.5-23.5h-36.4c-12.9,0-23.4,10.5-23.4,23.5v72.9C536.8,405.7,547.3,416.2,560.2,416.2z M552.4,319.8c0-4.3,3.5-7.8,7.8-7.8h36.4c4.3,0,7.8,3.5,7.8,7.8v72.9c0,4.3-3.5,7.8-7.8,7.8h-36.4c-4.3,0-7.8-3.5-7.8-7.8V319.8z"/><path d="M515.9,569.9v-73c0-12.9-10.5-23.4-23.4-23.4H456c-12.9,0-23.4,10.5-23.4,23.4v73c0,12.9,10.5,23.4,23.4,23.4h36.5C505.4,593.3,515.9,582.8,515.9,569.9z M448.2,569.9v-73c0-4.3,3.5-7.8,7.8-7.8h36.5c4.3,0,7.8,3.5,7.8,7.8v73c0,4.3-3.5,7.8-7.8,7.8H456C451.7,577.7,448.2,574.2,448.2,569.9z"/><path d="M359,631h-36.5c-12.9,0-23.4,10.5-23.4,23.5v73c0,12.9,10.5,23.4,23.4,23.4H359c12.9,0,23.4-10.5,23.4-23.4v-73C382.4,641.5,371.9,631,359,631z M366.8,727.4c0,4.3-3.5,7.8-7.8,7.8h-36.5c-4.3,0-7.8-3.5-7.8-7.8v-73c0-4.3,3.5-7.8,7.8-7.8H359c4.3,0,7.8,3.5,7.8,7.8V727.4z"/><path d="M605.9,634.2h-36.5c-12.9,0-23.4,10.5-23.4,23.4v73c0,12.9,10.5,23.4,23.4,23.4h36.5c12.9,0,23.4-10.5,23.4-23.4v-73C629.4,644.7,618.9,634.2,605.9,634.2z M613.7,730.6c0,4.3-3.5,7.8-7.8,7.8h-36.5c-4.3,0-7.8-3.5-7.8-7.8v-73c0-4.3,3.5-7.8,7.8-7.8h36.5c4.3,0,7.8,3.5,7.8,7.8V730.6z"/><path d="M435.7,332.7l30.7-21.4v97.1c0,4.3,3.5,7.8,7.8,7.8c4.3,0,7.8-3.5,7.8-7.8v-112c0-2.9-1.6-5.6-4.2-6.9c-2.6-1.4-5.7-1.2-8.1,0.5l-43,29.9c-3.5,2.5-4.4,7.4-1.9,10.9C427.3,334.3,432.2,335.2,435.7,332.7z"/><path d="M362.2,597.3c4.3,0,7.8-3.5,7.8-7.8v-112c0-2.9-1.6-5.6-4.2-6.9c-2.6-1.4-5.7-1.1-8.1,0.5l-43,30c-3.5,2.5-4.4,7.4-1.9,10.9c2.5,3.6,7.3,4.4,10.9,1.9l30.7-21.4v97C354.4,593.8,357.9,597.3,362.2,597.3z"/><path d="M483.4,754.7c4.3,0,7.8-3.5,7.8-7.8v-112c0-2.9-1.6-5.6-4.2-6.9c-2.6-1.3-5.7-1.1-8.1,0.5l-43,29.9c-3.5,2.5-4.4,7.4-1.9,10.9c2.5,3.5,7.3,4.4,10.9,1.9l30.7-21.4v97.1C475.6,751.2,479,754.7,483.4,754.7z"/><path d="M599.9,597.3c4.3,0,7.8-3.5,7.8-7.8v-112c0-2.9-1.6-5.6-4.2-6.9c-2.6-1.4-5.7-1.1-8.1,0.5l-43,30c-3.6,2.5-4.4,7.4-2,10.9c2.5,3.6,7.3,4.4,10.9,1.9l30.7-21.4v97C592.1,593.8,595.6,597.3,599.9,597.3z"/><path d="M727.1,416.2c12.9,0,23.4-10.5,23.4-23.4v-72.9c0-12.9-10.5-23.5-23.4-23.5h-36.5c-12.9,0-23.4,10.5-23.4,23.5v72.9c0,12.9,10.5,23.4,23.4,23.4H727.1z M682.8,392.8v-72.9c0-4.3,3.5-7.8,7.8-7.8h36.5c4.3,0,7.8,3.5,7.8,7.8v72.9c0,4.3-3.5,7.8-7.8,7.8h-36.5C686.3,400.6,682.8,397.1,682.8,392.8z"/><path d="M759.8,730.6v-73c0-12.9-10.5-23.4-23.4-23.4h-36.5c-12.9,0-23.4,10.5-23.4,23.4v73c0,12.9,10.5,23.4,23.4,23.4h36.5C749.2,754,759.8,743.5,759.8,730.6z M692,730.6v-73c0-4.3,3.5-7.8,7.8-7.8h36.5c4.3,0,7.8,3.5,7.8,7.8v73c0,4.3-3.5,7.8-7.8,7.8h-36.5C695.5,738.4,692,734.9,692,730.6z"/><path d="M730.3,597.3c4.3,0,7.8-3.5,7.8-7.8v-112c0-2.9-1.6-5.6-4.2-6.9c-2.6-1.4-5.7-1.1-8.1,0.5l-43,30c-3.6,2.5-4.4,7.4-1.9,10.9c2.5,3.6,7.3,4.4,10.9,1.9l30.7-21.4v97C722.5,593.8,726,597.3,730.3,597.3z"/></g></g><g></g><g></g><g></g><g></g><g></g><g></g><g></g><g></g><g></g><g></g><g></g><g></g><g></g><g></g><g></g></g>
</svg>