<?xml version="1.0" ?><svg id="Layer_1" style="enable-background:new 0 0 96 96;" version="1.1" viewBox="0 0 96 96" xml:space="preserve" xmlns="http://www.w3.org/2000/svg" xmlns:xlink="http://www.w3.org/1999/xlink"><path d="M8.6,4l7,78.9l32.3,9l32.4-9l7-78.9L8.6,4L8.6,4z M4.3,0h87.4L84,86L48,96l-36-10L4.3,0L4.3,0z M38.1,42H64  c0.6,0,1.1,0.2,1.5,0.7c0.4,0.4,0.6,1,0.5,1.5l-2,20c-0.1,0.7-0.5,1.3-1.2,1.6l-14,6c-0.5,0.2-1,0.2-1.5,0l-16-6  c-0.7-0.3-1.2-0.9-1.3-1.7l-0.9-8c-0.1-1.1,0.7-2.1,1.8-2.2l0.1,0c1.1-0.1,2,0.7,2.1,1.8l0.7,6.8l14.1,5.3l12.2-5.2L61.8,46H30.5H30  c-0.9,0-1.7-0.6-1.9-1.5c-0.2-0.9,0.2-1.8,1-2.3l1.2-0.6L59.9,26H29.3H28c-1.1,0-2-0.9-2-2c0-1.1,0.9-2,2-2h40  c0.9,0,1.7,0.6,1.9,1.5c0.2,0.9-0.2,1.8-1,2.3L38.1,42z"/></svg>